<svg version="1" xmlns="http://www.w3.org/2000/svg" width="21.333" height="21.333" viewBox="0 0 16.000000 16.000000"><path d="M7.077 1.421a9.52 9.52 0 0 1-.43.08c-.567.086-1.871.616-2.16.874-.05.05-.118.086-.142.086-.08 0-.868.659-1.182.991a7.06 7.06 0 0 0-1.6 2.905c-.13.51-.166.787-.178 1.52-.013.824 0 .984.184 1.809.357 1.594 1.693 3.286 3.293 4.172.584.327 1.483.628 2.123.714.381.056 1.772.056 2.061 0 1.459-.258 2.634-.874 3.662-1.914 1.354-1.372 2.006-3.07 1.92-4.966-.068-1.323-.375-2.258-1.126-3.385-.326-.486-1.059-1.286-1.446-1.569a7.268 7.268 0 0 0-2.887-1.292c-.313-.062-1.84-.08-2.092-.025z"/></svg>