<?xml version="1.0" standalone="no"?>
<!DOCTYPE svg PUBLIC "-//W3C//DTD SVG 20010904//EN"
 "http://www.w3.org/TR/2001/REC-SVG-20010904/DTD/svg10.dtd">
<svg version="1.0" xmlns="http://www.w3.org/2000/svg"
 width="16.000000pt" height="16.000000pt" viewBox="0 0 16.000000 16.000000"
 preserveAspectRatio="xMidYMid meet">
<metadata>
Created by potrace 1.11, written by Peter Selinger 2001-2013
</metadata>
<g transform="translate(0.000000,16.000000) scale(0.006154,-0.006154)"
fill="#000000" stroke="none">
<path d="M1150 2369 c-19 -4 -51 -10 -70 -13 -92 -14 -304 -100 -351 -142 -8
-8 -19 -14 -23 -14 -13 0 -141 -107 -192 -161 -119 -127 -215 -302 -260 -472
-21 -83 -27 -128 -29 -247 -2 -134 0 -160 30 -294 58 -259 275 -534 535 -678
95 -53 241 -102 345 -116 62 -9 288 -9 335 0 237 42 428 142 595 311 220 223
326 499 312 807 -11 215 -61 367 -183 550 -53 79 -172 209 -235 255 -138 103
-305 178 -469 210 -51 10 -299 13 -340 4z"/>
</g>
</svg>
